<svg width="16" height="16" viewBox="0 0 16 16" fill="none" xmlns="http://www.w3.org/2000/svg">
<g filter="url(#filter0_d_0_103)">
<path fill-rule="evenodd" clip-rule="evenodd" d="M2.27038 10.9176C1.07118 12.0968 2.08398 13.3064 0.490376 15.1008C-0.228824 15.9112 3.45118 15.664 5.27358 13.8712C6.04718 13.1112 5.82878 12.0032 4.99918 11.188C4.17118 10.372 3.04398 10.1576 2.27038 10.9176ZM15.5592 0.697614C14.9432 0.0928144 8.13038 5.55281 6.10158 7.54641C5.09518 8.53601 4.75918 9.06641 4.45118 9.46321C4.31678 9.63521 4.49438 9.68881 4.57358 9.72961C4.97198 9.93201 5.25118 10.1216 5.61198 10.476C5.97198 10.8304 6.16478 11.1048 6.37118 11.496C6.41278 11.5752 6.46718 11.7488 6.64158 11.6176C7.04558 11.3144 7.58558 10.984 8.59198 9.99441C10.62 8.00001 16.1744 1.30161 15.5592 0.697614Z" fill="white"/>
</g>
<defs>
<filter id="filter0_d_0_103" x="-3.60156" y="0.651123" width="23.208" height="22.8911" filterUnits="userSpaceOnUse" color-interpolation-filters="sRGB">
<feFlood flood-opacity="0" result="BackgroundImageFix"/>
<feColorMatrix in="SourceAlpha" type="matrix" values="0 0 0 0 0 0 0 0 0 0 0 0 0 0 0 0 0 0 127 0" result="hardAlpha"/>
<feOffset dy="4"/>
<feGaussianBlur stdDeviation="2"/>
<feComposite in2="hardAlpha" operator="out"/>
<feColorMatrix type="matrix" values="0 0 0 0 0 0 0 0 0 0 0 0 0 0 0 0 0 0 0.25 0"/>
<feBlend mode="normal" in2="BackgroundImageFix" result="effect1_dropShadow_0_103"/>
<feBlend mode="normal" in="SourceGraphic" in2="effect1_dropShadow_0_103" result="shape"/>
</filter>
</defs>
</svg>
